<svg width="91" height="102" viewBox="0 0 91 102" fill="none" xmlns="http://www.w3.org/2000/svg">
<path d="M87.5605 99.0156C87.5605 100.604 68.9221 101.886 45.9358 101.886C22.9495 101.886 4.31104 100.597 4.31104 99.0156C4.31104 97.4271 22.9495 96.1449 45.9358 96.1449C68.9285 96.1449 87.5605 97.4343 87.5605 99.0156Z" fill="#D3E0D7"/>
<path d="M90.7453 47.8231C90.7453 47.8231 85.9725 41.8685 80.5992 44.3226C75.2324 46.7768 73.592 54.7916 73.592 54.7916L65.9324 52.1953C65.9259 52.1953 79.4045 28.4287 90.7453 47.8231Z" fill="#278F51"/>
<path d="M79.2943 52.6349V91.5721C79.2943 94.8077 77.0081 97.5008 73.9598 98.1337C73.5141 98.2242 73.0556 98.2758 72.5842 98.2758H22.6033C22.1318 98.2758 21.6733 98.2242 21.2276 98.1337C18.1858 97.5008 15.8931 94.8012 15.8931 91.5721V52.6349C15.8931 51.918 16.4743 51.3368 17.1912 51.3368H77.9898C78.7131 51.3368 79.2943 51.918 79.2943 52.6349Z" fill="white"/>
<path d="M17.1983 51.3362C16.4814 51.3362 15.9001 51.9174 15.9001 52.6343V72.513C17.8764 80.6699 22.2487 89.0528 22.2487 89.0528C35.1007 82.9303 38.614 70.1234 38.3428 62.2507C38.3234 61.6049 38.2717 60.9978 38.2007 60.4295L46.519 67.9018C46.519 67.9018 47.8817 57.943 45.4857 51.4847C45.899 52.0466 46.3769 52.5697 46.9001 53.0412C51.2723 56.9549 52.803 62.916 52.803 62.916C52.803 62.916 60.3398 56.251 62.8521 51.446C62.8715 51.4072 62.8908 51.3685 62.9102 51.3297H17.1983V51.3362ZM31.4518 54.7526C30.9157 54.8689 30.4184 55.0303 29.9793 55.1983C29.9728 54.7333 29.9276 54.2812 29.8436 53.842C29.7597 53.4029 29.637 52.9831 29.4691 52.5826L31.807 54.6816C31.6907 54.7074 31.5745 54.7333 31.4518 54.7526Z" fill="#D3E0D7"/>
<path fill-rule="evenodd" clip-rule="evenodd" d="M26.2266 6.41872C26.5818 6.08288 27.1566 6.19913 27.6087 6.21851C28.3514 6.22497 29.178 6.3154 29.9853 6.5931C30.7861 6.86435 31.5611 7.30352 32.1359 7.90414C33.137 8.56935 33.7376 9.46058 34.4222 10.7781C34.7192 11.3464 35.068 11.9018 35.2682 12.4895C36.1142 15.0535 36.2176 17.5981 36.1207 20.2395C36.1078 20.5108 36.082 20.8079 36.0497 21.1049C35.9722 21.8024 35.9334 22.642 35.772 23.2878C35.5911 23.9918 35.0486 24.4374 34.5384 24.3922C34.0928 23.8045 34.3705 22.6872 34.4416 21.5699C34.5772 19.7035 34.6417 17.0879 34.4092 15.3312C34.2478 13.9814 33.899 12.6574 33.4147 11.482C32.9174 10.2614 32.1682 9.24747 31.2512 8.40789C30.5924 7.79435 29.8884 7.2131 29.0553 6.87081C28.177 6.5156 27.2147 6.34767 26.2266 6.41872Z" fill="#1C663A"/>
<path fill-rule="evenodd" clip-rule="evenodd" d="M52.4083 25.3222C52.3308 24.812 52.7312 24.3793 52.9056 23.9208C53.4675 22.4483 53.7258 20.6206 53.9906 19.0254C53.9454 18.4377 53.926 17.9016 53.8614 17.3397C53.7968 16.7779 53.6935 16.1772 53.4222 15.525C53.1768 14.9566 52.77 14.511 52.3954 14.1106C51.5881 13.2323 50.4837 12.6768 49.4117 12.6252C48.346 12.5606 47.3256 13.0966 46.4215 13.9168C46.2342 14.0912 46.0339 14.2785 45.8273 14.4723C45.3493 14.9372 44.865 15.6089 44.4387 16.0739C43.9608 16.5841 43.3085 16.7843 42.8435 16.5583C42.6562 15.8156 43.4635 14.8016 44.2579 13.8652C44.9231 13.0773 45.8273 12.1344 47.0802 11.5402C47.7002 11.2431 48.4042 11.0687 49.0887 11.0623C49.7669 11.0493 50.3998 11.185 50.9293 11.3787C52.5504 11.9664 53.8873 13.3098 54.4556 14.8404C55.0562 16.3904 55.1596 18.005 54.9012 19.4904C54.7075 20.5818 54.2683 21.5377 53.8743 22.4676C53.4352 23.4751 52.9314 24.4116 52.4083 25.3222Z" fill="#1C663A"/>
<path fill-rule="evenodd" clip-rule="evenodd" d="M56.0699 22.9712C55.973 22.616 56.283 22.4287 56.3863 22.151C56.7093 21.2662 56.5026 20.1941 56.5672 19.2835C56.3282 18.6441 56.3153 18.0822 55.9795 17.3201C55.8309 16.9908 55.5597 16.7324 55.3788 16.4547C54.5845 15.2535 53.6028 14.2331 52.4209 13.5356C52.2982 13.4645 52.1755 13.387 52.0399 13.3095C51.7299 13.1287 51.3166 13.0383 51.0259 12.9026C50.7159 12.7476 50.4964 12.2891 50.5028 11.7724C50.8709 11.2429 51.7041 11.4689 52.4016 11.7595C53.0087 11.9856 53.6674 12.3924 54.2422 12.8704C54.817 13.3483 55.3078 13.8972 55.6759 14.3687C56.2442 15.092 56.7544 15.8993 57.0515 16.7712C57.3551 17.6495 57.5747 18.5666 57.523 19.4708C57.4907 20.136 57.2582 20.7495 57.0515 21.3243C56.8384 21.9314 56.4961 22.4997 56.0699 22.9712Z" fill="#1C663A"/>
<path fill-rule="evenodd" clip-rule="evenodd" d="M20.4329 47.6357C20.0518 47.6421 19.9162 47.2546 19.6772 47.0479C18.9474 46.3763 17.8948 45.6852 17.391 44.7036C17.1004 44.4323 16.8679 44.1417 16.6741 43.8059C16.4675 43.4765 16.2737 43.1084 16.0348 42.6821C15.8087 42.3204 15.5375 41.9782 15.3373 41.6165C14.5623 40.0148 14.065 38.3809 13.8002 36.579C13.7808 36.3917 13.7614 36.1915 13.7485 35.9848C13.7162 35.5069 13.6452 34.9321 13.7033 34.4801C13.7873 33.9828 14.2393 33.6405 14.7495 33.6405C15.292 34.0021 15.1887 34.7449 15.2727 35.4747C15.3954 36.6953 15.7054 38.368 16.0671 39.4982C16.3189 40.37 16.7129 41.2032 17.0487 42.0169C17.4039 42.85 17.8754 43.5928 18.3016 44.3548C18.4631 44.6261 18.6116 44.9102 18.7472 45.1944C18.9022 45.4721 19.0572 45.7434 19.2251 46.0082C19.4189 46.273 19.6127 46.5442 19.8129 46.8219C20.0131 47.0867 20.2198 47.3579 20.4329 47.6357Z" fill="#1C663A"/>
<path fill-rule="evenodd" clip-rule="evenodd" d="M24.9284 54.333C24.5925 53.9519 24.683 53.3642 24.5861 52.8799C24.3213 51.3363 23.8369 49.4957 24.0178 47.7972C23.9467 47.1901 23.9338 46.6217 23.9919 46.0211C24.0178 45.7176 24.0436 45.4076 24.0694 45.0782C24.1082 44.7488 24.1469 44.4001 24.1986 44.019C24.2503 43.3603 24.2696 42.7016 24.3536 42.0686C24.825 39.3626 25.6259 36.8568 26.8142 34.3316C26.9434 34.0732 27.0919 33.802 27.2469 33.5243C27.5957 32.8784 28.009 32.0905 28.4224 31.5351C28.9067 30.941 29.5848 30.7214 30.0305 30.9733C30.1984 31.7224 29.4557 32.6653 28.9196 33.7051C27.9896 35.4295 26.9369 37.9418 26.4009 39.7565C25.9553 41.1386 25.6969 42.5918 25.4192 43.9674C25.148 45.3882 25.0705 46.7961 24.9542 48.1847C24.9284 48.6884 24.8832 49.1922 24.8315 49.6894C24.7992 50.1867 24.7798 50.684 24.7734 51.1749C24.7928 51.698 24.8057 52.2211 24.8251 52.7507C24.8574 53.2738 24.8896 53.7969 24.9284 54.333Z" fill="#1C663A"/>
<path d="M27.2529 44.0191L31.9868 48.6432C31.9868 48.6432 51.168 49.3666 51.1551 49.0953C51.1422 48.8241 49.5083 29.9335 49.5083 29.9335L31.6187 33.9312L27.2529 44.0191Z" fill="#2D5000"/>
<path d="M61.7793 39.3175C61.7793 39.3175 68.0955 39.9439 70.0718 40.3702C70.0718 40.3702 65.2603 44.5229 62.9224 45.0202L61.7793 39.3175Z" fill="#278F51"/>
<path d="M65.6868 28.8678C65.1508 33.1626 63.646 36.1269 61.7795 38.1678C57.1425 43.2376 50.245 42.6434 50.245 42.6434C50.245 42.6434 45.3496 32.4974 51.5108 28.8678C53.7648 27.5438 56.2706 27.1886 58.5375 27.2661C62.4706 27.4082 65.6868 28.8678 65.6868 28.8678Z" fill="#32B768"/>
<path d="M61.7795 38.1678C57.1425 43.2376 50.245 42.6434 50.245 42.6434C50.245 42.6434 45.3496 32.4974 51.5108 28.8678C53.7648 27.5438 56.2706 27.1886 58.5375 27.2661L50.7552 36.1011C50.7552 36.1011 55.3535 37.044 56.1802 38.8588C56.1867 38.8588 59.2543 37.2765 61.7795 38.1678Z" fill="#1C663A"/>
<path d="M65.6868 20.3041L48.4237 37.128L44.6391 40.8157C44.5294 40.7511 44.426 40.6865 44.3162 40.6155C42.8114 39.6597 41.5262 38.5811 40.6092 37.3476C38.4392 34.4284 38.2971 30.6309 42.0816 25.5482C43.0245 24.2824 44.3356 23.3008 45.8662 22.5322C53.2545 18.8251 65.6868 20.3041 65.6868 20.3041Z" fill="#278F51"/>
<path d="M40.6094 37.3412C38.4394 34.4221 38.2973 30.6246 42.0819 25.5419C43.0248 24.2761 44.3358 23.2944 45.8664 22.5259C45.8664 22.5259 46.8288 30.8312 40.6094 37.3412Z" fill="#1C663A"/>
<path d="M48.4236 37.1281L44.6391 40.8158C44.5293 40.7512 44.426 40.6866 44.3162 40.6156C45.6466 37.296 48.4236 37.1281 48.4236 37.1281Z" fill="#1C663A"/>
<path d="M23.1972 86.6698C23.1972 86.6698 17.3524 75.4581 16.1253 66.3583C15.8347 64.1883 15.8024 62.1346 16.1705 60.3844C18.108 51.2975 25.7418 49.063 29.2486 53.629C29.2486 53.629 29.9203 53.2028 30.9278 52.8153C31.3605 52.6473 31.8643 52.4859 32.4003 52.3696C34.0472 52.0144 36.0363 52.0726 37.6057 53.629C38.5163 54.5332 39.1815 56.8323 39.2849 59.8677C39.5626 67.7404 36.0492 80.5473 23.1972 86.6698Z" fill="#278F51"/>
<path d="M23.1975 86.6696C24.0113 76.9821 25.4902 68.8382 26.7754 63.0645C28.1123 57.0841 29.2489 53.6353 29.2489 53.6353C29.2489 53.6353 29.9206 53.2091 30.9281 52.8216C31.3608 52.6537 31.8646 52.4922 32.4006 52.376C34.0475 52.0208 36.0366 52.0789 37.606 53.6353C38.5166 54.5395 39.1819 56.8387 39.2852 59.8741C39.5629 67.7403 36.0496 80.5471 23.1975 86.6696Z" fill="#32B768"/>
<path d="M28.0088 61.9221C27.6536 62.3419 27.2338 62.7165 26.7817 63.0652C23.7592 65.3515 18.8702 66.1136 16.1319 66.3654C15.8413 64.1954 15.809 62.1417 16.1771 60.3915C18.1146 51.3046 25.7484 49.0701 29.2552 53.6361C29.2552 53.6361 29.9269 53.2099 30.9344 52.8224C30.9344 52.8224 31.7998 57.4917 28.0088 61.9221Z" fill="#1C663A"/>
<path d="M39.2913 59.8741L32.4067 52.376C34.0536 52.0208 36.0428 52.0789 37.6121 53.6353C38.5228 54.5395 39.188 56.8387 39.2913 59.8741Z" fill="#1C663A"/>
<path d="M45.2849 21.7054C45.0137 22.2156 44.7102 22.6806 44.3679 23.0939L36.7729 21.4729L31.2575 20.2975C31.2575 20.2975 31.2317 19.0962 31.8904 17.3848C33.1239 14.1943 36.7535 9.20852 47.3968 6.84478C47.3968 6.85123 48.1008 16.4354 45.2849 21.7054Z" fill="#278F51"/>
<path d="M45.2849 21.7054C45.0137 22.2156 44.7101 22.6806 44.3678 23.0939L36.7729 21.4729C36.6889 20.8141 36.676 20.1747 36.7147 19.5612C37.2249 11.4818 47.4032 6.84478 47.4032 6.84478C47.4032 6.84478 48.1007 16.4354 45.2849 21.7054Z" fill="#32B768"/>
<path d="M45.2849 21.7054C45.0137 22.2156 44.7102 22.6806 44.3679 23.1004L36.7729 21.4794L31.2575 20.304C31.2575 20.304 31.2317 19.1027 31.8904 17.3913C31.8904 17.3913 35.1195 18.134 35.0614 20.304C35.0614 20.304 35.7202 19.9617 36.7083 19.5677C39.4918 18.4504 44.8716 16.9456 45.2849 21.7054Z" fill="#1C663A"/>
<path d="M15.4537 40.5443C15.3504 40.6992 11.695 46.318 4.7717 44.7163C-2.24849 43.0888 -1.63498 31.0828 7.41312 20.3039C7.41312 20.3039 18.7152 20.9497 21.1435 29.5587C23.5847 38.1676 20.136 42.2751 15.4537 40.5443Z" fill="#278F51"/>
<path d="M15.4537 40.5443C15.3504 40.6992 11.695 46.318 4.7717 44.7163C-2.24849 43.0888 -1.63498 31.0828 7.41312 20.3039C15.6604 27.5243 15.4537 40.5443 15.4537 40.5443Z" fill="#32B768"/>
<path d="M39.5633 37.0893C35.2298 40.4864 31.1868 44.9491 29.9662 46.3247C29.7272 46.596 29.5981 46.751 29.5981 46.751C18.2056 38.5101 22.9848 19.0835 28.0739 17.6627C33.1566 16.2354 34.6872 20.9177 34.6872 20.9177C51.8663 12.5736 44.7493 33.0206 39.5633 37.0893Z" fill="#278F51"/>
<path d="M39.5624 37.0894C35.2289 40.4864 31.186 44.9491 29.9653 46.3247C23.6362 29.6171 34.6799 20.9113 34.6799 20.9113C51.8655 12.5736 44.7484 33.0206 39.5624 37.0894Z" fill="#32B768"/>
<path d="M31.2516 7.36818C31.2516 7.36818 31.8393 1.91091 28.7264 0.677375C25.6135 -0.556164 20.337 2.02716 18.8064 7.01298L31.2516 7.36818Z" fill="#32B768"/>
<path d="M11.98 18.9347L31.2516 7.36786C31.2516 7.36786 28.3195 1.26476 21.9516 3.84809C15.5837 6.43141 12.7744 15.0597 11.98 18.9347Z" fill="#278F51"/>
<path d="M35.0291 44.4256C35.0291 44.4256 43.6122 42.2104 46.2601 48.6429C48.9015 55.0754 47.4742 65.5249 47.4742 65.5249L35.0291 44.4256Z" fill="#32B768"/>
<path d="M28.0088 48.0291L47.4742 65.5247C47.4677 65.5247 45.7821 33.6981 28.0088 48.0291Z" fill="#278F51"/>
<path d="M26.8271 61.3853C21.3698 66.1322 8.169 65.4928 8.169 65.4928C4.92692 45.3299 16.074 41.3775 20.1105 41.7714C24.1404 42.1654 25.2512 46.7508 25.2512 46.7508C32.8333 47.4547 32.2844 56.6385 26.8271 61.3853Z" fill="#278F51"/>
<path d="M26.8278 61.3853C21.3705 66.1322 8.16968 65.4928 8.16968 65.4928C12.4386 49.4439 25.2455 46.7507 25.2455 46.7507C32.834 47.4547 32.285 56.6384 26.8278 61.3853Z" fill="#32B768"/>
<path d="M63.8075 49.0693C61.2952 53.8742 53.7584 60.5392 53.7584 60.5392C53.7584 60.5392 52.2277 54.5782 47.8555 50.6645C43.4767 46.7443 42.818 39.3236 47.8555 37.3345C52.893 35.3389 56.148 39.1235 56.148 39.1235C65.8354 34.7835 66.3198 44.2643 63.8075 49.0693Z" fill="#32B768"/>
<path d="M53.7657 60.5392C53.7657 60.5392 52.2351 54.5782 47.8628 50.6644C43.484 46.7442 42.8253 39.3236 47.8628 37.3344C52.9003 35.3388 56.1553 39.1234 56.1553 39.1234C56.1553 39.1234 61.6061 45.614 53.7657 60.5392Z" fill="#278F51"/>
</svg>
