<svg width="669" height="381" viewBox="0 0 669 381" fill="none" xmlns="http://www.w3.org/2000/svg">
<path d="M0 280.571V355.571H15.6932V280.571H0ZM9.54759 293.536H24.8018C28.972 293.536 32.2643 294.464 34.6786 296.321C37.0929 298.107 38.3001 300.821 38.3001 304.464C38.3001 308.036 37.0929 310.75 34.6786 312.607C32.2643 314.464 28.972 315.393 24.8018 315.393H9.54759V328.357H24.8018C30.8742 328.357 36.0321 327.393 40.2755 325.464C44.592 323.536 47.8843 320.786 50.1523 317.214C52.4203 313.571 53.5543 309.321 53.5543 304.464C53.5543 299.536 52.4203 295.286 50.1523 291.714C47.8843 288.143 44.592 285.393 40.2755 283.464C36.0321 281.536 30.8742 280.571 24.8018 280.571H9.54759V293.536Z" fill="white"/>
<path d="M64.3785 272V355.571H78.645V272H64.3785Z" fill="white"/>
<path d="M102.768 340.25C102.768 338.821 103.097 337.643 103.755 336.714C104.414 335.714 105.438 334.964 106.828 334.464C108.218 333.893 110.011 333.607 112.206 333.607C114.913 333.607 117.473 333.964 119.888 334.679C122.375 335.393 124.606 336.464 126.582 337.893V331.464C125.85 330.607 124.643 329.714 122.96 328.786C121.278 327.857 119.193 327.071 116.705 326.429C114.291 325.786 111.474 325.464 108.255 325.464C101.963 325.464 97.0977 326.857 93.6591 329.643C90.2205 332.429 88.5012 336.214 88.5012 341C88.5012 344.357 89.306 347.214 90.9156 349.571C92.5983 351.857 94.7931 353.607 97.5001 354.821C100.207 356.036 103.134 356.643 106.279 356.643C109.352 356.643 112.279 356.107 115.059 355.036C117.912 353.964 120.217 352.357 121.973 350.214C123.802 348.071 124.716 345.429 124.716 342.286L122.96 335.857C122.96 338.214 122.412 340.25 121.314 341.964C120.217 343.607 118.79 344.893 117.034 345.821C115.278 346.679 113.303 347.107 111.108 347.107C109.572 347.107 108.145 346.857 106.828 346.357C105.584 345.786 104.597 345 103.865 344C103.134 342.929 102.768 341.679 102.768 340.25ZM97.2806 320.214C98.0122 319.714 99.1462 319.107 100.683 318.393C102.219 317.679 104.048 317.071 106.17 316.571C108.291 316.071 110.523 315.821 112.864 315.821C114.4 315.821 115.791 315.964 117.034 316.25C118.278 316.536 119.339 317 120.217 317.643C121.168 318.286 121.863 319.107 122.302 320.107C122.741 321.036 122.96 322.179 122.96 323.536V355.571H136.678V320.643C136.678 317.286 135.727 314.464 133.825 312.179C131.923 309.821 129.289 308.036 125.923 306.821C122.558 305.607 118.717 305 114.4 305C109.718 305 105.475 305.643 101.67 306.929C97.8659 308.143 94.6468 309.429 92.013 310.786L97.2806 320.214Z" fill="white"/>
<path d="M182.494 325.571V355.571H197.199V324.071C197.199 318.143 195.736 313.536 192.81 310.25C189.883 306.893 185.42 305.214 179.421 305.214C175.836 305.214 172.763 305.964 170.203 307.464C167.715 308.893 165.703 311 164.167 313.786V306.286H149.9V355.571H164.167V325.571C164.167 323.5 164.569 321.714 165.374 320.214C166.179 318.714 167.349 317.571 168.886 316.786C170.422 315.929 172.178 315.5 174.153 315.5C177.08 315.5 179.202 316.357 180.519 318.071C181.835 319.786 182.494 322.286 182.494 325.571Z" fill="white"/>
<path d="M204.727 306.286V317.964H235.894V306.286H204.727ZM213.397 289.143V355.571H227.114V289.143H213.397Z" fill="white"/>
<path d="M254.677 313.607L276.955 348.75L299.233 313.607L304.171 355.714H320.523L309.11 276.965L276.955 325.393L244.8 276.965L233.387 355.714H249.739L254.677 313.607Z" fill="#1A5331"/>
<path d="M341.616 340.393C341.616 338.964 341.946 337.786 342.604 336.857C343.263 335.857 344.287 335.107 345.677 334.607C347.067 334.036 348.859 333.75 351.054 333.75C353.761 333.75 356.322 334.107 358.736 334.822C361.224 335.536 363.455 336.607 365.431 338.036V331.607C364.699 330.75 363.492 329.857 361.809 328.929C360.126 328 358.041 327.214 355.554 326.572C353.139 325.929 350.323 325.607 347.104 325.607C340.812 325.607 335.946 327 332.508 329.786C329.069 332.572 327.35 336.357 327.35 341.143C327.35 344.5 328.155 347.357 329.764 349.714C331.447 352 333.642 353.75 336.349 354.964C339.056 356.179 341.982 356.786 345.128 356.786C348.201 356.786 351.127 356.25 353.908 355.179C356.761 354.107 359.065 352.5 360.821 350.357C362.65 348.214 363.565 345.572 363.565 342.429L361.809 336C361.809 338.357 361.26 340.393 360.163 342.107C359.065 343.75 357.639 345.036 355.883 345.964C354.127 346.822 352.152 347.25 349.957 347.25C348.42 347.25 346.994 347 345.677 346.5C344.433 345.929 343.445 345.143 342.714 344.143C341.982 343.072 341.616 341.822 341.616 340.393ZM336.129 320.357C336.861 319.857 337.995 319.25 339.531 318.536C341.068 317.822 342.897 317.214 345.018 316.714C347.14 316.214 349.372 315.964 351.713 315.964C353.249 315.964 354.639 316.107 355.883 316.393C357.127 316.679 358.188 317.143 359.065 317.786C360.017 318.429 360.712 319.25 361.151 320.25C361.59 321.179 361.809 322.322 361.809 323.679V355.714H375.527V320.786C375.527 317.429 374.576 314.607 372.674 312.322C370.771 309.964 368.137 308.179 364.772 306.964C361.407 305.75 357.566 305.143 353.249 305.143C348.567 305.143 344.323 305.786 340.519 307.072C336.715 308.286 333.495 309.572 330.862 310.929L336.129 320.357Z" fill="#1A5331"/>
<path d="M421.343 325.714V355.714H436.048V324.214C436.048 318.286 434.585 313.679 431.658 310.393C428.732 307.036 424.269 305.357 418.27 305.357C414.685 305.357 411.612 306.107 409.051 307.607C406.564 309.036 404.552 311.143 403.016 313.929V306.429H388.749V355.714H403.016V325.714C403.016 323.643 403.418 321.857 404.223 320.357C405.028 318.857 406.198 317.714 407.734 316.929C409.271 316.072 411.027 315.643 413.002 315.643C415.929 315.643 418.05 316.5 419.367 318.214C420.684 319.929 421.343 322.429 421.343 325.714Z" fill="#1A5331"/>
<path d="M460.147 340.393C460.147 338.964 460.476 337.786 461.134 336.857C461.793 335.857 462.817 335.107 464.207 334.607C465.597 334.036 467.39 333.75 469.585 333.75C472.292 333.75 474.852 334.107 477.267 334.822C479.754 335.536 481.986 336.607 483.961 338.036V331.607C483.229 330.75 482.022 329.857 480.339 328.929C478.657 328 476.572 327.214 474.084 326.572C471.67 325.929 468.853 325.607 465.634 325.607C459.342 325.607 454.477 327 451.038 329.786C447.6 332.572 445.88 336.357 445.88 341.143C445.88 344.5 446.685 347.357 448.295 349.714C449.977 352 452.172 353.75 454.879 354.964C457.586 356.179 460.513 356.786 463.659 356.786C466.731 356.786 469.658 356.25 472.438 355.179C475.291 354.107 477.596 352.5 479.352 350.357C481.181 348.214 482.095 345.572 482.095 342.429L480.339 336C480.339 338.357 479.791 340.393 478.693 342.107C477.596 343.75 476.169 345.036 474.413 345.964C472.657 346.822 470.682 347.25 468.487 347.25C466.951 347.25 465.524 347 464.207 346.5C462.964 345.929 461.976 345.143 461.244 344.143C460.513 343.072 460.147 341.822 460.147 340.393ZM454.66 320.357C455.391 319.857 456.525 319.25 458.062 318.536C459.598 317.822 461.427 317.214 463.549 316.714C465.67 316.214 467.902 315.964 470.243 315.964C471.779 315.964 473.17 316.107 474.413 316.393C475.657 316.679 476.718 317.143 477.596 317.786C478.547 318.429 479.242 319.25 479.681 320.25C480.12 321.179 480.339 322.322 480.339 323.679V355.714H494.057V320.786C494.057 317.429 493.106 314.607 491.204 312.322C489.302 309.964 486.668 308.179 483.302 306.964C479.937 305.75 476.096 305.143 471.779 305.143C467.097 305.143 462.854 305.786 459.049 307.072C455.245 308.286 452.026 309.572 449.392 310.929L454.66 320.357Z" fill="#1A5331"/>
<path d="M504.865 359.143C505.158 363.429 506.328 367.214 508.377 370.5C510.499 373.857 513.535 376.429 517.485 378.214C521.436 380.072 526.338 381 532.191 381C537.02 381 541.482 380.072 545.579 378.214C549.677 376.429 552.932 373.572 555.347 369.643C557.834 365.714 559.078 360.714 559.078 354.643V306.429H545.36V354.643C545.36 358 544.702 360.786 543.385 363C542.141 365.214 540.458 366.857 538.336 367.929C536.288 369 534.093 369.536 531.752 369.536C529.191 369.536 526.96 369.107 525.058 368.25C523.155 367.393 521.656 366.179 520.558 364.607C519.461 363.107 518.876 361.286 518.802 359.143H504.865ZM503.877 330.643C503.877 336.072 505.011 340.679 507.279 344.464C509.547 348.179 512.547 351 516.278 352.929C520.01 354.857 523.96 355.822 528.13 355.822C532.374 355.822 536.105 354.857 539.324 352.929C542.616 350.929 545.177 348.036 547.006 344.25C548.908 340.464 549.859 335.929 549.859 330.643C549.859 325.286 548.908 320.75 547.006 317.036C545.177 313.25 542.616 310.357 539.324 308.357C536.105 306.357 532.374 305.357 528.13 305.357C523.96 305.357 520.01 306.322 516.278 308.25C512.547 310.179 509.547 313.036 507.279 316.822C505.011 320.536 503.877 325.143 503.877 330.643ZM518.583 330.643C518.583 327.643 519.205 325.143 520.448 323.143C521.692 321.072 523.375 319.5 525.497 318.429C527.618 317.357 529.886 316.822 532.301 316.822C533.91 316.822 535.483 317.143 537.02 317.786C538.556 318.357 539.946 319.214 541.19 320.357C542.507 321.5 543.531 322.929 544.263 324.643C544.994 326.357 545.36 328.357 545.36 330.643C545.36 333.643 544.702 336.179 543.385 338.25C542.141 340.25 540.495 341.786 538.446 342.857C536.471 343.857 534.422 344.357 532.301 344.357C529.886 344.357 527.618 343.822 525.497 342.75C523.375 341.679 521.692 340.143 520.448 338.143C519.205 336.072 518.583 333.572 518.583 330.643Z" fill="#1A5331"/>
<path d="M596.682 356.786C602.754 356.786 607.949 355.643 612.265 353.357C616.655 351 620.167 347.5 622.8 342.857L610.4 339.107C608.936 341.464 607.071 343.25 604.803 344.464C602.608 345.607 599.937 346.179 596.791 346.179C594.011 346.179 591.634 345.572 589.658 344.357C587.683 343.143 586.183 341.393 585.159 339.107C584.208 336.822 583.732 334.036 583.732 330.75C583.805 327.322 584.317 324.464 585.269 322.179C586.293 319.822 587.719 318.072 589.548 316.929C591.451 315.714 593.792 315.107 596.572 315.107C598.84 315.107 600.815 315.607 602.498 316.607C604.181 317.607 605.461 318.964 606.339 320.679C607.29 322.393 607.766 324.464 607.766 326.893C607.766 327.393 607.619 328.036 607.327 328.822C607.107 329.536 606.851 330.107 606.559 330.536L610.4 325.607H577.587V334.179H622.8C622.874 333.75 622.91 333.179 622.91 332.464C622.983 331.75 623.02 331.072 623.02 330.429C623.02 325.143 621.996 320.643 619.947 316.929C617.899 313.143 614.899 310.286 610.948 308.357C607.071 306.357 602.352 305.357 596.791 305.357C591.231 305.357 586.403 306.429 582.305 308.572C578.208 310.643 575.026 313.607 572.758 317.464C570.563 321.25 569.466 325.786 569.466 331.072C569.466 336.286 570.563 340.822 572.758 344.679C575.026 348.464 578.208 351.429 582.305 353.572C586.403 355.714 591.195 356.786 596.682 356.786Z" fill="#1A5331"/>
<path d="M647.678 306.429H633.74V355.714H647.678V306.429ZM662.493 320.893L668.968 309.107C667.943 307.822 666.59 306.857 664.907 306.214C663.298 305.572 661.578 305.25 659.749 305.25C657.116 305.25 654.555 306.179 652.067 308.036C649.58 309.822 647.568 312.25 646.032 315.322C644.495 318.322 643.727 321.786 643.727 325.714L647.678 329.572C647.678 327.214 647.97 325.214 648.556 323.572C649.214 321.857 650.165 320.536 651.409 319.607C652.653 318.679 654.152 318.214 655.908 318.214C657.372 318.214 658.579 318.464 659.53 318.964C660.554 319.393 661.542 320.036 662.493 320.893Z" fill="#1A5331"/>
<g clip-path="url(#clip0_1_5)">
<path d="M408.549 0.323044C371.313 0.323044 341.02 30.5084 341.02 67.6104V74.5334H347.968C385.204 74.5334 415.497 44.3481 415.497 7.2461V0.323044H408.549Z" fill="#00DA70"/>
<path d="M286.293 22.3059H279.346V29.229C279.346 66.3318 309.639 96.5167 346.874 96.5167H353.822V89.5937C353.823 52.4917 323.529 22.3059 286.293 22.3059Z" fill="#00DA70"/>
<path d="M404.07 143.233C393.092 131.035 374.719 110.619 351.686 108.712C316.33 105.785 293.161 126.108 292.191 126.974L296.466 131.722H296.467L300.741 136.469C300.781 136.434 301.62 135.697 303.181 134.565L327.567 144.893L350.587 155.284L354.493 174.083L398.346 155.922C399.025 156.644 399.662 157.297 400.253 157.868L409.162 148.708C407.896 147.486 406.123 145.515 404.07 143.233Z" fill="#2B7A4B"/>
<path d="M435.16 156.955C432.957 151.674 428.823 147.564 423.517 145.382C418.212 143.199 412.372 143.206 407.071 145.401L359.956 164.913C360 162.066 359.474 159.208 358.371 156.474C356.13 150.925 351.829 146.646 346.257 144.424L302.825 127.101C293.208 123.262 282.639 123.331 273.064 127.295L251.506 136.223L253.962 142.113L253.997 144.42L253.962 144.443L254.328 180.221L251.93 186.135L322.393 214.495C327.206 216.427 332.254 217.393 337.3 217.393C342.49 217.393 347.677 216.372 352.606 214.331L423.564 184.945C428.864 182.75 432.989 178.63 435.179 173.344C437.37 168.057 437.363 162.237 435.16 156.955Z" fill="#F9D5A5"/>
<path d="M254.141 161.928L254.328 161.466L254.129 142.044L253.962 142.113L253.997 144.42L253.962 144.443L254.141 161.928Z" fill="#F9BE77"/>
<path d="M260.365 119.058H218.323V204.648H260.365V119.058Z" fill="#2B7A4B"/>
<path d="M260.791 110.069H247.989V209.424H260.791V110.069Z" fill="white"/>
<path d="M389.918 33.0917L380.665 24.2768L341.021 65.6978V74.238L314.179 46.2613L304.925 55.0766L341.021 92.6978V114.795H353.823V70.7125L389.918 33.0917Z" fill="#34975C"/>
</g>
<defs>
<clipPath id="clip0_1_5">
<rect width="218.495" height="217.714" fill="white" transform="translate(218.323)"/>
</clipPath>
</defs>
</svg>
