<svg width="90" height="90" viewBox="0 0 90 90" fill="none" xmlns="http://www.w3.org/2000/svg">
<g clip-path="url(#clip0_1_1278)">
<path d="M78.3561 0.133057C63.0183 0.133057 50.5403 12.5667 50.5403 27.8493V30.701H53.4022C68.74 30.701 81.218 18.2674 81.218 2.98473V0.133057H78.3561Z" fill="#00DA70"/>
<path d="M27.9977 9.18802H25.136V12.0397C25.136 27.3227 37.6142 39.7562 52.9516 39.7562H55.8135V36.9045C55.8137 21.6218 43.3355 9.18802 27.9977 9.18802Z" fill="#00DA70"/>
<path d="M76.5109 58.9992C71.9892 53.9746 64.4212 45.5649 54.9336 44.7794C40.3701 43.5736 30.8266 51.9449 30.4272 52.3017L32.188 54.2575H32.1882L33.9488 56.213C33.9652 56.1985 34.3111 55.895 34.954 55.4287L44.9986 59.6827L54.4808 63.9631L56.0897 71.7066L74.1532 64.2258C74.4332 64.523 74.6953 64.7921 74.9388 65.0273L78.6087 61.2541C78.087 60.7507 77.3568 59.9389 76.5109 58.9992Z" fill="#2B7A4B"/>
<path d="M89.3175 64.6514C88.4101 62.476 86.707 60.783 84.5216 59.8841C82.3363 58.9852 79.9308 58.988 77.7472 59.8922L58.3401 67.9291C58.3584 66.7564 58.1418 65.5794 57.6872 64.4533C56.7644 62.1676 54.9925 60.4048 52.6975 59.4896L34.8074 52.3541C30.8461 50.773 26.4926 50.8013 22.5484 52.4341L13.6685 56.1115L14.6804 58.5377L14.6947 59.4879L14.6804 59.4975L14.8311 74.2346L13.8434 76.6708L42.8675 88.3525C44.8501 89.1484 46.9292 89.5462 49.0079 89.5462C51.1457 89.5462 53.2825 89.1256 55.3126 88.2849L84.541 76.1806C86.7242 75.2764 88.4233 73.5794 89.3254 71.4018C90.2277 69.2242 90.2249 66.827 89.3175 64.6514Z" fill="#F9D5A5"/>
<path d="M14.7541 66.6995L14.8309 66.5094L14.7491 58.5091L14.6804 58.5377L14.6947 59.4881L14.6804 59.4975L14.7541 66.6995Z" fill="#F9BE77"/>
<path d="M17.3174 49.0412H0V84.2966H17.3174V49.0412Z" fill="#2B7A4B"/>
<path d="M17.4932 45.3387H12.22V86.2636H17.4932V45.3387Z" fill="white"/>
<path d="M70.6818 13.6308L66.8701 9.99985L50.5404 27.0615V30.5793L39.4839 19.0555L35.6721 22.6866L50.5404 38.1831V47.2849H55.8137V29.1271L70.6818 13.6308Z" fill="#34975C"/>
</g>
<defs>
<clipPath id="clip0_1_1278">
<rect width="90" height="89.6786" fill="white"/>
</clipPath>
</defs>
</svg>
